<?xml version="1.0" standalone="no"?>
<!DOCTYPE svg PUBLIC "-//W3C//DTD SVG 20010904//EN"
 "http://www.w3.org/TR/2001/REC-SVG-20010904/DTD/svg10.dtd">
<svg version="1.0" xmlns="http://www.w3.org/2000/svg"
 width="767.000000pt" height="325.000000pt" viewBox="0 0 767.000000 325.000000"
 preserveAspectRatio="xMidYMid meet">

<g transform="translate(0.000000,325.000000) scale(0.100000,-0.100000)"
fill="#000000" stroke="none">
<path d="M1395 2557 c-22 -8 -162 -75 -312 -151 -239 -120 -277 -143 -317
-187 -77 -85 -86 -130 -86 -414 0 -266 7 -313 61 -391 44 -64 81 -90 246 -172
l153 -77 44 44 c29 28 92 68 176 111 l132 67 -206 101 -206 102 0 86 c0 47 4
93 9 102 5 9 99 61 208 115 l198 99 208 -102 207 -101 0 -89 c0 -49 4 -92 10
-95 14 -9 239 108 287 150 25 21 55 62 74 100 30 61 31 69 27 152 -3 69 -10
99 -30 138 -47 91 -95 124 -403 277 -284 141 -285 141 -362 145 -47 2 -94 -2
-118 -10z m305 -452 c109 -55 175 -94 186 -110 19 -29 31 -110 18 -118 -5 -3
-94 37 -199 89 -104 51 -198 94 -208 94 -10 0 -104 -43 -208 -95 -105 -53
-195 -93 -201 -89 -14 9 -1 91 20 121 23 36 336 192 385 192 27 1 81 -21 207
-84z"/>
<path d="M6528 1718 c1 -189 5 -349 7 -355 3 -8 24 -13 60 -13 l55 0 0 193 c0
137 3 196 12 205 7 7 39 12 74 12 52 0 68 -4 91 -24 l28 -24 5 -179 5 -178 60
0 60 0 0 185 c0 161 -3 190 -19 223 -39 80 -144 122 -248 100 -39 -8 -55 -8
-60 1 -4 6 -8 53 -8 104 l0 92 -62 0 -63 0 3 -342z"/>
<path d="M2783 2005 c-118 -33 -180 -108 -171 -206 9 -95 52 -127 218 -164 63
-14 122 -33 132 -42 28 -25 24 -77 -8 -102 -22 -18 -41 -21 -113 -21 -48 0
-113 7 -144 15 -87 23 -87 23 -87 -40 0 -64 3 -66 104 -85 140 -26 310 5 372
66 55 56 63 160 16 223 -30 41 -91 69 -198 91 -117 24 -144 39 -144 80 0 38
29 67 75 76 38 7 181 0 228 -12 l27 -6 0 55 c0 48 -3 58 -22 68 -35 19 -223
22 -285 4z"/>
<path d="M3403 2005 c-108 -30 -173 -101 -173 -189 0 -90 57 -145 179 -172
153 -33 177 -42 189 -69 14 -31 2 -67 -30 -89 -30 -21 -172 -22 -251 -1 -87
23 -87 23 -87 -40 0 -64 4 -67 101 -84 129 -22 272 -5 346 40 46 29 73 85 73
152 0 104 -57 151 -224 186 -119 25 -146 40 -146 81 0 38 29 67 75 76 38 7
181 0 228 -12 l27 -6 0 55 c0 48 -3 58 -22 68 -35 19 -224 21 -285 4z"/>
<path d="M4012 1763 c3 -244 4 -260 25 -300 45 -84 121 -123 241 -123 107 0
193 45 235 123 21 40 22 55 25 300 l3 257 -65 0 -66 0 0 -235 c0 -261 -6 -292
-59 -319 -38 -20 -113 -20 -151 -1 -60 31 -65 55 -65 315 l0 235 -63 3 -63 3
3 -258z"/>
<path d="M4802 1859 c-29 -5 -69 -16 -89 -24 l-36 -15 7 -77 c3 -42 6 -148 6
-235 l0 -159 58 3 57 3 5 199 5 199 28 10 c43 14 111 0 138 -29 23 -24 24 -33
29 -202 l5 -177 60 0 60 0 0 165 c0 91 -2 181 -5 200 -5 33 -3 35 33 43 51 12
104 1 133 -28 23 -23 24 -29 24 -189 0 -90 3 -171 6 -180 5 -12 21 -16 66 -16
l60 0 -4 198 c-3 192 -4 200 -28 235 -53 77 -167 105 -298 73 -64 -16 -74 -16
-123 -2 -57 17 -114 19 -197 5z"/>
<path d="M5720 1859 c-41 -4 -88 -12 -103 -18 l-27 -11 2 -237 3 -238 60 0 60
0 5 200 5 200 75 5 75 5 3 35 c1 19 -1 40 -5 46 -12 16 -69 21 -153 13z"/>
<path d="M6066 1850 c-95 -37 -137 -102 -144 -221 -8 -142 49 -241 159 -273
71 -21 117 -20 184 5 62 23 108 64 132 118 23 50 23 202 0 253 -52 116 -201
169 -331 118z m169 -96 c78 -51 69 -266 -12 -303 -31 -14 -89 -14 -115 0 -70
38 -78 246 -11 299 32 25 103 27 138 4z"/>
</g>
</svg>
